<?xml version="1.0" encoding="UTF-8" standalone="no"?>
<svg
   xmlns:dc="http://purl.org/dc/elements/1.1/"
   xmlns:cc="http://creativecommons.org/ns#"
   xmlns:rdf="http://www.w3.org/1999/02/22-rdf-syntax-ns#"
   xmlns:svg="http://www.w3.org/2000/svg"
   xmlns="http://www.w3.org/2000/svg"
   xmlns:sodipodi="http://sodipodi.sourceforge.net/DTD/sodipodi-0.dtd"
   xmlns:inkscape="http://www.inkscape.org/namespaces/inkscape"
   width="210mm"
   height="297mm"
   viewBox="0 0 210 297"
   version="1.1"
   id="svg8"
   inkscape:version="1.0.1 (c497b03c, 2020-09-10)"
   sodipodi:docname="tideclock.svg">
  <defs
     id="defs2" />
  <sodipodi:namedview
     id="base"
     pagecolor="#ffffff"
     bordercolor="#666666"
     borderopacity="1.0"
     inkscape:pageopacity="0.0"
     inkscape:pageshadow="2"
     inkscape:zoom="0.35"
     inkscape:cx="414.28571"
     inkscape:cy="565.71429"
     inkscape:document-units="mm"
     inkscape:current-layer="layer1"
     inkscape:document-rotation="0"
     showgrid="false"
     inkscape:window-width="1252"
     inkscape:window-height="943"
     inkscape:window-x="0"
     inkscape:window-y="25"
     inkscape:window-maximized="0" />
  <metadata
     id="metadata5">
    <rdf:RDF>
      <cc:Work
         rdf:about="">
        <dc:format>image/svg+xml</dc:format>
        <dc:type
           rdf:resource="http://purl.org/dc/dcmitype/StillImage" />
        <dc:title />
      </cc:Work>
    </rdf:RDF>
  </metadata>
  <g
     inkscape:label="Layer 1"
     inkscape:groupmode="layer"
     id="layer1">
    <rect
       style="fill:none;stroke:#000000;stroke-width:0.944999"
       id="rect833"
       width="80"
       height="40"
       x="64.255951"
       y="96.761902" />
    <rect
       style="fill:none;stroke:#000000;stroke-width:0.944999"
       id="rect835"
       width="152.70241"
       height="150.43452"
       x="27.904747"
       y="56.69643"
       rx="10"
       ry="10" />
    <g
       aria-label="Tide Clock"
       id="text852"
       style="font-style:normal;font-variant:normal;font-weight:normal;font-stretch:normal;font-size:25.4px;line-height:1.25;font-family:Mistral;-inkscape-font-specification:Mistral;fill:#000000;fill-opacity:1;stroke:none;stroke-width:0.264583">
      <path
         d="m 65.169963,67.101403 q -1.339453,2.269628 -3.150195,4.452441 -1.438672,0.42168 -2.988965,0.694531 -2.430859,2.864941 -6.188769,8.049121 -0.545703,0.756543 -1.525488,2.058789 -0.967383,1.289844 -1.5875,2.083594 -0.607715,0.79375 -1.21543,1.513086 -0.806152,0.967383 -1.37666,1.525488 -0.570508,0.558105 -0.979785,0.830957 -0.868164,0.545703 -1.63711,0.545703 -0.719336,0 -1.11621,-0.235644 -0.42168,-0.223243 -0.892969,-0.84336 -0.322461,-0.409277 -0.806153,-0.682129 1.203028,-2.319238 1.63711,-3.509863 1.401465,1.240234 3.584277,1.835547 l 2.232422,-3.038574 q 1.054199,-1.438672 2.195215,-3.137793 1.215429,-1.785938 2.195215,-3.348633 l 2.319238,-3.683496 q -2.530078,-0.496094 -4.836914,-0.744141 -2.306836,-0.248046 -4.204395,-0.248046 -3.212207,0 -6.846093,0.892968 2.158007,-3.100586 3.509863,-5.481836 0.830957,-0.08682 1.74873,-0.124023 0.930176,-0.04961 1.959571,-0.04961 2.728515,0 5.643066,0.483691 l 2.641699,0.446484 q 0.644922,0.111622 1.761133,0.173633 1.091406,0.06201 2.00918,0.06201 2.269628,0 5.915917,-0.520898 z"
         style="font-style:normal;font-variant:normal;font-weight:normal;font-stretch:normal;font-size:25.4px;font-family:'Matura MT Script Capitals';-inkscape-font-specification:'Matura MT Script Capitals';fill:#ff0000;fill-opacity:1;stroke-width:0.264583"
         id="path854" />
      <path
         d="m 63.917326,75.882262 0.334863,-1.550293 q 2.492871,-0.409278 5.717481,-1.934766 v 2.182813 l -0.03721,0.930175 q 0,0.186036 0.0124,0.334864 0.0124,0.409277 0.0124,1.128613 0,0.322461 0.0124,0.520898 l 0.08682,2.182813 q 0.0248,0.706933 0.186035,3.175 -2.554883,0.446484 -4.440039,0.669726 0.173633,-1.562695 0.173633,-4.650878 l -0.04961,-3.112989 q -0.520899,0.21084 -1.116211,0.21084 -0.446485,0 -0.892969,-0.08682 z m 3.671094,-9.140527 q 0.930175,0 1.612304,0.644921 0.669727,0.644922 0.669727,1.63711 0,0.930176 -0.669727,1.599902 -0.682129,0.669727 -1.612304,0.669727 -0.930176,0 -1.599903,-0.669727 -0.669726,-0.657324 -0.669726,-1.599902 0,-0.942578 0.669726,-1.612305 0.657325,-0.669726 1.599903,-0.669726 z"
         style="font-style:normal;font-variant:normal;font-weight:normal;font-stretch:normal;font-size:25.4px;font-family:'Matura MT Script Capitals';-inkscape-font-specification:'Matura MT Script Capitals';fill:#ff0000;fill-opacity:1;stroke-width:0.264583"
         id="path856" />
      <path
         d="m 76.096428,74.828063 0.124023,5.208984 q 0.06201,-0.06201 0.111621,-0.111621 0.06201,-0.06201 0.09922,-0.09922 0.08682,-0.148828 0.235645,-0.384473 0.16123,-0.248047 0.285254,-0.458886 l 1.90996,-3.361035 q -1.178222,-0.545704 -2.765722,-0.79375 z m 7.081738,8.024316 -4.353223,0.79375 q 0.0124,-0.396875 0.0124,-0.930176 0,-1.984375 -0.322461,-3.943945 -0.42168,0.79375 -1.711524,2.232422 -1.37666,1.53789 -2.033984,2.393652 -1.265039,-0.384473 -2.095996,-0.756543 -0.322461,-1.909961 -0.322461,-4.216797 0,-1.413867 0.409277,-2.393652 0.42168,-0.992188 1.42627,-2.071191 1.00459,-1.079004 2.17041,-1.84795 0.806152,0.03721 2.418457,0.471289 0.09922,-2.654101 0.09922,-4.985742 3.596679,-0.669726 4.353222,-0.843359 -0.446484,4.998144 -0.446484,10.839648 0,1.438672 0.09922,2.80293 0.111621,1.364258 0.297656,2.455664 z"
         style="font-style:normal;font-variant:normal;font-weight:normal;font-stretch:normal;font-size:25.4px;font-family:'Matura MT Script Capitals';-inkscape-font-specification:'Matura MT Script Capitals';fill:#ff0000;fill-opacity:1;stroke-width:0.264583"
         id="path858" />
      <path
         d="m 88.85844,74.852867 -0.322461,3.026172 q 1.079004,0 2.319239,-0.07441 0.0248,-0.818555 0.0248,-0.781348 0,-1.054199 -0.558105,-1.5875 -0.570508,-0.545703 -1.463477,-0.58291 z m -3.745507,-0.124023 2.790527,-2.368848 3.33623,0.248047 q 1.612305,0.136426 2.282032,0.806152 0.694531,0.694532 0.694531,1.513086 0,0.359668 -0.09922,0.930176 -0.136426,0.669727 -0.285254,1.996777 -1.699121,0.880567 -2.579687,1.029395 -0.892969,0.148828 -1.711524,0.148828 -0.310058,0 -0.768945,-0.06201 1.21543,1.513086 2.368848,1.513086 1.364257,0 2.455664,-1.029394 h 0.09922 q -1.240234,3.869531 -4.588867,3.869531 -1.736328,0 -2.517676,-0.483691 -0.781347,-0.483692 -1.190625,-1.401465 -0.421679,-0.892969 -0.421679,-3.38584 l 0.06201,-2.120801 z"
         style="font-style:normal;font-variant:normal;font-weight:normal;font-stretch:normal;font-size:25.4px;font-family:'Matura MT Script Capitals';-inkscape-font-specification:'Matura MT Script Capitals';fill:#ff0000;fill-opacity:1;stroke-width:0.264583"
         id="path860" />
      <path
         d="m 122.85326,66.729332 0.74414,2.740918 q -0.27285,2.319238 -1.45107,6.362402 -0.91778,-2.158007 -1.92237,-3.956347 -2.45566,-0.992188 -4.82451,-0.992188 -3.86953,0 -6.03994,2.282032 -2.18281,2.294433 -2.18281,5.370214 0,1.686719 0.91777,2.902149 0.90537,1.203027 3.47266,2.232422 2.57969,1.029394 6.44922,1.550292 1.28984,0.186036 2.6417,0.297657 1.35185,0.111621 2.96416,0.173633 1.6123,0.06201 3.01377,0.06201 l -2.18282,2.864942 q -4.83691,0.905371 -9.12812,0.905371 -5.66787,0 -8.28477,-2.17041 -2.6417,-2.158008 -2.6417,-5.60586 0,-3.819922 2.19522,-7.51582 2.17041,-3.695898 5.95312,-5.742285 3.78272,-2.046387 7.57784,-2.046387 1.26503,0 2.72851,0.285254 z"
         style="font-style:normal;font-variant:normal;font-weight:normal;font-stretch:normal;font-size:25.4px;font-family:'Matura MT Script Capitals';-inkscape-font-specification:'Matura MT Script Capitals';fill:#ff0000;fill-opacity:1;stroke-width:0.264583"
         id="path862" />
      <path
         d="m 127.09486,67.969567 2.43086,-0.620118 1.83555,-0.496093 -0.5209,9.152929 -0.18604,3.59668 q 0.91778,0.657324 2.0712,1.327051 v 0.08682 q -1.47588,1.37666 -2.48047,2.716113 -1.71153,-0.359668 -2.55489,-1.475879 -0.84336,-1.128613 -0.84336,-3.026171 0,-0.756543 0.0744,-2.480469 0.0744,-1.661914 0.17363,-8.780859 z"
         style="font-style:normal;font-variant:normal;font-weight:normal;font-stretch:normal;font-size:25.4px;font-family:'Matura MT Script Capitals';-inkscape-font-specification:'Matura MT Script Capitals';fill:#ff0000;fill-opacity:1;stroke-width:0.264583"
         id="path864" />
      <path
         d="m 137.84149,74.679234 q -0.65732,1.103809 -0.65732,2.282032 0,3.212207 3.28662,3.91914 0.31006,-1.240234 0.31006,-2.430859 0,-1.909961 -0.90537,-2.740918 -0.89297,-0.818555 -2.03399,-1.029395 z m 5.32061,-1.996777 -0.66973,1.141016 q 0.93018,0.285254 1.51309,1.203027 0.59531,0.930176 0.59531,2.294434 0,1.314648 -0.50849,2.443261 -0.5209,1.116211 -1.10381,1.624707 -0.59532,0.533301 -2.04639,1.252637 -0.26045,0.124023 -0.73174,0.458887 -0.35967,0.272851 -0.62012,0.409277 -2.41845,-0.0124 -4.40283,-1.364258 -1.98437,-1.314648 -1.98437,-3.323828 0,-3.274219 4.52685,-6.275586 2.07119,0.186035 3.50987,0.186035 1.0666,0 1.92236,-0.04961 z"
         style="font-style:normal;font-variant:normal;font-weight:normal;font-stretch:normal;font-size:25.4px;font-family:'Matura MT Script Capitals';-inkscape-font-specification:'Matura MT Script Capitals';fill:#ff0000;fill-opacity:1;stroke-width:0.264583"
         id="path866" />
      <path
         d="m 149.29506,72.235973 q 2.50527,0.06201 3.58428,0.322461 1.15342,0.285254 1.90996,1.203027 0.75654,0.942578 0.75654,2.38125 -1.93476,0.322461 -3.65869,0.979785 -0.28525,-1.37666 -1.48828,-1.686719 -0.22324,2.244825 -0.22324,3.088184 0,0.620117 0.35966,1.016992 0.35967,0.396875 1.14102,0.669727 0.80615,0.297656 1.46348,0.297656 1.04179,0 1.97197,-1.21543 l 0.0496,0.04961 q -0.71934,2.021582 -1.78594,2.951757 -1.0542,0.930176 -3.15019,0.930176 -1.5627,0 -2.51768,-0.632519 -0.94258,-0.63252 -1.26504,-1.550293 -0.33486,-0.917774 -0.33486,-2.43086 0,-1.562695 0.12402,-3.881933 1.43867,-1.339453 3.06338,-2.492871 z"
         style="font-style:normal;font-variant:normal;font-weight:normal;font-stretch:normal;font-size:25.4px;font-family:'Matura MT Script Capitals';-inkscape-font-specification:'Matura MT Script Capitals';fill:#ff0000;fill-opacity:1;stroke-width:0.264583"
         id="path868" />
      <path
         d="m 157.54262,67.870348 q 2.96416,-0.880567 4.79971,-1.041797 -1.14102,2.716113 -1.14102,10.070703 v 2.988965 q 1.78594,-3.447852 1.78594,-5.667871 0,-0.496094 -0.0744,-0.992188 0,0 3.77031,-0.694531 -0.0744,1.016992 -0.23565,1.649512 -0.17363,0.719336 -0.32246,0.95498 -0.18603,0.310059 -0.97978,1.265039 -0.43408,0.533301 -0.83096,1.277442 0.14883,-0.0124 0.32246,-0.0124 1.17822,0 2.04639,0.682129 0.86816,0.706934 1.84795,2.393652 -0.83096,1.029395 -1.51309,1.79834 -0.66972,0.756543 -1.27744,1.351856 -0.76894,-2.021582 -3.59668,-3.497461 -1.14101,2.071191 -1.19062,2.59209 l -3.81993,0.830957 0.0124,-2.033985 -0.0248,-3.596679 q 0,-3.695899 0.0992,-6.325196 0.11162,-2.629296 0.32246,-3.993554 z"
         style="font-style:normal;font-variant:normal;font-weight:normal;font-stretch:normal;font-size:25.4px;font-family:'Matura MT Script Capitals';-inkscape-font-specification:'Matura MT Script Capitals';fill:#ff0000;fill-opacity:1;stroke-width:0.264583"
         id="path870" />
    </g>
  </g>
</svg>
